<svg width="43" height="40" viewBox="0 0 43 40" fill="none" xmlns="http://www.w3.org/2000/svg">
<path d="M26.875 28C26.875 28.737 26.274 29.3333 25.5312 29.3333H17.4688C16.7297 29.3333 16.125 28.7333 16.125 28V24H0V36C0 38.1333 1.88209 40 4.03125 40H38.9688C41.1179 40 43 38.1325 43 36V24H26.875V28ZM38.9688 8H32.25V4C32.25 1.8675 30.3687 0 28.2188 0H14.7812C12.6313 0 10.75 1.8675 10.75 4V8H4.03125C1.88209 8 0 9.86667 0 12V21.3333H43V12C43 9.86667 41.1188 8 38.9688 8ZM28.2188 8H14.7812V4H28.2188V8Z" fill="#000"/>
</svg>
