<svg width="37" height="37" viewBox="0 0 37 37" fill="none" xmlns="http://www.w3.org/2000/svg">
<path d="M18.5 0C28.7184 0 37 8.28164 37 18.5C37 28.7184 28.7184 37 18.5 37C14.576 37 10.9266 35.7715 7.92754 33.683C6.87969 32.8881 6.62242 31.5078 7.35664 30.46C8.08652 29.4121 9.52461 29.1592 10.5725 29.8891C12.8199 31.4572 15.5516 32.375 18.5 32.375C26.1602 32.375 32.375 26.1602 32.375 18.5C32.375 10.7748 26.1602 4.625 18.5 4.625C14.6049 4.625 11.2012 6.17582 8.68633 8.68633L10.9121 10.9121C12.0033 12.0033 11.2301 13.875 9.69082 13.875H1.73438C0.776855 13.875 0 13.1018 0 12.1406V4.18707C0 2.64203 1.86807 1.86807 2.96072 2.96072L5.41848 5.41848C8.76582 2.0733 13.3908 0 18.435 0H18.5ZM18.5 9.25C19.4611 9.25 20.2344 10.0232 20.2344 10.9844V17.7846L24.8666 22.4746C25.6037 23.1539 25.6037 24.2523 24.8666 24.8666C24.2523 25.6037 23.1539 25.6037 22.4746 24.8666L17.2715 19.6635C16.9463 19.4033 16.7656 18.9625 16.7656 18.5V10.9844C16.7656 10.0232 17.5389 9.25 18.5 9.25Z" fill="#000"/>
</svg>
