<svg width="40" height="36" viewBox="0 0 40 36" fill="none" xmlns="http://www.w3.org/2000/svg">
<path d="M12.5004 30.8571H7.50024C6.11973 30.8571 5.00016 29.7056 5.00016 28.2857V7.71429C5.00016 6.29437 6.11973 5.14286 7.50024 5.14286H12.5004C13.8809 5.14286 15.0005 3.99134 15.0005 2.57143C15.0005 1.15152 13.8833 0 12.5004 0H7.50024C3.35792 0 0 3.45375 0 7.71429V28.2857C0 32.5462 3.35792 36 7.50024 36H12.5004C13.8809 36 15.0005 34.8485 15.0005 33.4286C15.0005 32.0087 13.8833 30.8571 12.5004 30.8571ZM39.2669 16.1839L29.2666 5.89821C28.2892 4.89295 26.7071 4.89455 25.7313 5.89821C24.7547 6.90268 24.7547 8.52991 25.7313 9.53437L31.4697 15.4286H15.0005C13.6176 15.4286 12.5004 16.5777 12.5004 18C12.5004 19.4223 13.6184 20.5714 15.0005 20.5714H31.4697L25.7368 26.468C24.7602 27.4725 24.7602 29.0997 25.7368 30.1042C26.7134 31.1087 28.2954 31.1087 29.272 30.1042L39.2723 19.8185C40.2435 18.8116 40.2435 17.1884 39.2669 16.1839Z" fill="#000"/>
</svg>
