<svg width="40" height="36" viewBox="0 0 40 36" fill="none" xmlns="http://www.w3.org/2000/svg">
<path d="M39.7428 5.79234C39.5622 5.03367 38.8884 4.5 38.1173 4.5H31.1148C31.1317 3.62461 31.1223 2.83359 31.104 2.17828C31.0732 0.958359 30.0937 0 28.8849 0H11.1288C9.92002 0 8.94052 0.958359 8.90578 2.17828C8.82937 2.83359 8.87799 3.62461 8.89883 4.5H1.89363C1.12253 4.5 0.454038 5.03367 0.271683 5.79234C0.215274 6.03141 -1.09143 11.7563 2.57512 17.2898C5.17602 21.2147 9.56365 23.9716 15.6005 25.5445C16.8995 25.8824 17.7825 27.0956 17.7825 28.4534C17.7839 30.1289 16.4292 31.5 14.7689 31.5H14.4494C12.6078 31.5 11.1156 33.011 11.1156 34.875C11.1156 35.4963 11.6132 36 12.1645 36H27.663C28.2768 36 28.7119 35.4963 28.7119 34.875C28.7119 33.011 27.2198 31.5 25.3781 31.5H25.0555C23.398 31.5 22.0434 30.1289 22.0434 28.452C22.0434 27.0942 22.9263 25.8806 24.2254 25.5431C30.2664 23.9723 34.6526 21.2154 37.2507 17.2884C41.1044 11.7563 39.7984 6.03141 39.7428 5.79234ZM5.37748 15.4547C3.43653 12.5578 3.26564 9.54141 3.36081 7.875H8.94538C9.31766 12.067 10.3591 17.093 12.9516 21.1711C9.54489 19.8 7.00929 17.8875 5.37748 15.4547ZM34.6369 15.4547C33.0086 17.8875 30.473 19.7965 27.0648 21.1655C29.656 17.093 30.698 12.0656 31.0662 7.875H36.6508C36.6862 9.54141 36.5751 12.5648 34.6369 15.4547Z" fill="#000"/>
</svg>
