<svg width="36" height="39" viewBox="0 0 36 39" fill="none" xmlns="http://www.w3.org/2000/svg">
<path d="M35.8968 12.6902C36.143 13.3453 35.9341 14.0842 35.4268 14.5641L32.1967 17.5652C32.2787 18.1975 32.3235 18.8449 32.3235 19.5C32.3235 20.1551 32.2787 20.8025 32.1967 21.4348L35.4268 24.4359C35.9341 24.9158 36.143 25.6547 35.8968 26.3098C35.5685 27.2162 35.1732 28.0922 34.7256 28.9225L34.375 29.5395C33.8826 30.3773 33.3306 31.1695 32.7263 31.9236C32.2787 32.4645 31.5551 32.6549 30.8987 32.4416L26.7435 31.0857C25.7439 31.8703 24.5727 32.5254 23.4612 33.0281L22.5287 37.3775C22.3795 38.0631 21.8573 38.5506 21.171 38.7334C20.1415 38.9086 19.0822 39 17.9334 39C16.9189 39 15.8596 38.9086 14.8301 38.7334C14.1438 38.5506 13.6216 38.0631 13.4724 37.3775L12.5399 33.0281C11.3612 32.5254 10.2572 31.8703 9.25756 31.0857L5.1054 32.4416C4.44594 32.6549 3.7186 32.4645 3.27698 31.9236C2.67198 31.1695 2.11995 30.3773 1.6276 29.5395L1.27848 28.9225C0.825665 28.0922 0.431783 27.2162 0.101311 26.3098C-0.140389 25.6547 0.0632657 24.9158 0.575013 24.4359L3.80216 21.4348C3.7201 20.8025 3.67758 20.1551 3.67758 19.5C3.67758 18.8449 3.7201 18.1975 3.80216 17.5652L0.575013 14.5641C0.0632657 14.0842 -0.140389 13.3529 0.101311 12.6902C0.431783 11.7838 0.826411 10.9078 1.27848 10.0775L1.62686 9.46055C2.11995 8.62266 2.67198 7.83047 3.27698 7.08018C3.7186 6.53555 4.44594 6.34664 5.1054 6.56145L9.25756 7.91426C10.2572 7.12664 11.3612 6.47156 12.5399 5.97416L13.4724 1.62475C13.6216 0.933105 14.1438 0.383906 14.8301 0.267363C15.8596 0.0914824 16.9189 0 18.0005 0C19.0822 0 20.1415 0.0914824 21.171 0.267363C21.8573 0.383906 22.3795 0.933105 22.5287 1.62475L23.4612 5.97416C24.5727 6.47156 25.7439 7.12664 26.7435 7.91426L30.8987 6.56145C31.5551 6.34664 32.2787 6.53555 32.7263 7.08018C33.3306 7.83047 33.8826 8.62266 34.375 9.46055L34.7256 10.0775C35.1732 10.9078 35.5685 11.7838 35.8968 12.6902ZM18.0005 25.5938C21.2978 25.5938 23.9684 22.8668 23.9684 19.4314C23.9684 16.1332 21.2978 13.3377 18.0005 13.3377C14.7033 13.3377 12.0326 16.1332 12.0326 19.4314C12.0326 22.8668 14.7033 25.5938 18.0005 25.5938Z" fill="#000"/>
</svg>
